Coordinates
version=1
nRows=11
nColumns=21
inDegrees=yes

Units are S.I. units (second, meters, Newtons, ...)
Angles are in degrees.

endheader
time	Thorax_pitch	Thorax_roll	Thorax_yaw	Thorax_Tx	Thorax_Ty	Thorax_Tz	L_shoulder_flex-ext	L_shoulder_adb-add	L_shoulder_LAR	L_elbow_flex-ext	L_forearm_pron-sup	L_wrist_flex-ext	L_MCP_flex-ext	R_shoulder_flex-ext	R_shoulder_adb-add	R_shoulder_LAR	R_elbow_flex-ext	R_forearm_pron-sup	R_wrist_flex-ext	R_MCP_flex-ext
      0.08300000	      0.00000000	      0.00000000	      5.88530018	      0.12484719	      0.31873080	      0.05806280	      0.00000000	      0.00000000	      0.00000000	    -67.49998323	     49.99999342	      0.00000000	      0.00000000	      6.37742639	     10.46177610	    -16.84405714	    -82.30020729	    116.29100206	    -64.39872519	     14.83673796
      0.08310000	      0.00000000	      0.00000000	      6.02688306	      0.12488291	      0.31875435	      0.05801854	      0.00000000	      0.00000000	      0.00000000	    -67.49998327	     49.99999342	      0.00000000	      0.00000000	      6.53064150	     10.56254933	    -16.71089615	    -82.28039527	    116.50566103	    -64.53488455	     14.91258754
      0.08320000	      0.00000000	      0.00000000	      5.88515333	      0.12499150	      0.31870945	      0.05801753	      0.00000000	      0.00000000	      0.00000000	    -67.49998331	     49.99999341	      0.00000000	      0.00000000	      6.43422403	     10.53426018	    -16.79273728	    -82.36316486	    116.36026918	    -64.46752967	     14.82531080
      0.08330000	      0.00000000	      0.00000000	      5.81142752	      0.12508195	      0.31866805	      0.05800486	      0.00000000	      0.00000000	      0.00000000	    -67.49998335	     49.99999341	      0.00000000	      0.00000000	      6.37139562	     10.57324469	    -16.77663785	    -82.47289338	    116.26543160	    -64.42114768	     14.82338658
      0.08340000	      0.00000000	      0.00000000	      5.96940439	      0.12517545	      0.31871643	      0.05797186	      0.00000000	      0.00000000	      0.00000000	    -67.49998339	     49.99999340	      0.00000000	      0.00000000	      6.60386622	     10.64288809	    -16.66708329	    -82.44703582	    116.50189308	    -64.61625405	     14.98081726
      0.08350000	      0.00000000	      0.00000000	      5.84296662	      0.12528101	      0.31868138	      0.05797015	      0.00000000	      0.00000000	      0.00000000	    -67.49998343	     49.99999340	      0.00000000	      0.00000000	      6.54530055	     10.60156802	    -16.75874504	    -82.49802432	    116.41620936	    -64.59668690	     14.86078997
      0.08360000	      0.00000000	      0.00000000	      5.97891324	      0.12533915	      0.31869092	      0.05793182	      0.00000000	      0.00000000	      0.00000000	    -67.49998347	     49.99999340	      0.00000000	      0.00000000	      6.73297588	     10.66303643	    -16.66782915	    -82.48718856	    116.68758828	    -64.77244171	     14.95737885
      0.08370000	      0.00000000	      0.00000000	      5.81792052	      0.12543525	      0.31867286	      0.05795837	      0.00000000	      0.00000000	      0.00000000	    -67.49998352	     49.99999340	      0.00000000	      0.00000000	      6.57554396	     10.61888941	    -16.73999849	    -82.53537212	    116.41591927	    -64.59938528	     14.85822074
      0.08380000	      0.00000000	      0.00000000	      5.68993258	      0.12555898	      0.31860053	      0.05793825	      0.00000000	      0.00000000	      0.00000000	    -67.49998355	     49.99999339	      0.00000000	      0.00000000	      6.51398104	     10.64322736	    -16.77825662	    -82.69629262	    116.34050624	    -64.60841874	     14.88388841
      0.08390000	      0.00000000	      0.00000000	      5.66774754	      0.12564704	      0.31857950	      0.05792510	      0.00000000	      0.00000000	      0.00000000	    -67.49998359	     49.99999339	      0.00000000	      0.00000000	      6.50429305	     10.70760077	    -16.71192829	    -82.79270446	    116.31298220	    -64.59141542	     14.89914387
      0.08400000	      0.00000000	      0.00000000	      5.62186036	      0.12572639	      0.31855652	      0.05790934	      0.00000000	      0.00000000	      0.00000000	    -67.49998362	     49.99999338	      0.00000000	      0.00000000	      6.48276788	     10.73540152	    -16.70283478	    -82.86547809	    116.22847540	    -64.56794810	     14.91963690
